<svg width="22" height="24" viewBox="0 0 22 24" fill="none" xmlns="http://www.w3.org/2000/svg">
<rect width="22" height="24" fill="#E5E5E5"/>
<g id="Bosh sahifa" clip-path="url(#clip0_9_0)">
<rect width="1300" height="3910" transform="translate(-750 -3701)" fill="white"/>
<g id="site-footer">
<rect width="1300" height="338" transform="translate(-750 -130)" fill="#191919"/>
<g id="socials" clip-path="url(#clip1_9_0)">
<g id="socials-list" clip-path="url(#clip2_9_0)">
<g id="link" clip-path="url(#clip3_9_0)">
<g id="facebook" clip-path="url(#clip4_9_0)">
<path id="Vector" d="M21.6562 12C21.6562 5.57812 16.8867 0.375 11 0.375C5.11328 0.375 0.34375 5.57812 0.34375 12C0.34375 17.8022 4.24059 22.6116 9.33496 23.4844V15.3605H6.62793V12H9.33496V9.43875C9.33496 6.52547 10.9248 4.91625 13.3598 4.91625C14.526 4.91625 15.7455 5.14313 15.7455 5.14313V8.0025H14.4014C13.078 8.0025 12.665 8.89875 12.665 9.81797V12H15.6204L15.1478 15.3605H12.665V23.4844C17.7594 22.6116 21.6562 17.8022 21.6562 12Z" fill="white"/>
</g>
</g>
</g>
</g>
</g>
</g>
<defs>
<clipPath id="clip0_9_0">
<rect width="1300" height="3910" fill="white" transform="translate(-750 -3701)"/>
</clipPath>
<clipPath id="clip1_9_0">
<rect width="142" height="130" fill="white" transform="translate(0 -74)"/>
</clipPath>
<clipPath id="clip2_9_0">
<rect width="106" height="88" fill="white" transform="translate(0 -32)"/>
</clipPath>
<clipPath id="clip3_9_0">
<rect width="102" height="24" fill="white"/>
</clipPath>
<clipPath id="clip4_9_0">
<rect width="22" height="24" fill="white"/>
</clipPath>
</defs>
</svg>
